<svg width="60" height="60" viewBox="0 0 60 60" fill="none" xmlns="http://www.w3.org/2000/svg">
<circle cx="29.8876" cy="29.8876" r="29.8876" fill="#E4E8E8"/>
<path d="M34.6468 41.4773V32.9794H37.4928L37.9186 29.6759H34.6468V27.568C34.6468 26.6116 34.9127 25.9589 36.2839 25.9589H38.0332V23.0043C37.1864 22.9145 36.3353 22.8709 35.4837 22.8738C32.9621 22.8738 31.236 24.4133 31.236 27.241V29.6759H28.3838V32.9794H31.236V41.4773H20.7375C20.4139 41.4773 20.1037 41.3488 19.8749 41.12C19.6461 40.8912 19.5176 40.5809 19.5176 40.2574V20.7389C19.5176 20.4154 19.6461 20.1051 19.8749 19.8763C20.1037 19.6476 20.4139 19.519 20.7375 19.519H40.2559C40.5794 19.519 40.8897 19.6476 41.1185 19.8763C41.3473 20.1051 41.4758 20.4154 41.4758 20.7389V40.2574C41.4758 40.5809 41.3473 40.8912 41.1185 41.12C40.8897 41.3488 40.5794 41.4773 40.2559 41.4773H34.6468Z" fill="#1E1E1E"/>
</svg>
