<svg width="61" height="60" viewBox="0 0 61 60" fill="none" xmlns="http://www.w3.org/2000/svg">
<circle cx="30.2138" cy="29.8876" r="29.8876" fill="#E4E8E8"/>
<path d="M30.8221 18.2983C34.1365 18.2983 34.5501 18.3105 35.8505 18.3715C37.1497 18.4325 38.0341 18.6363 38.8124 18.9388C39.6176 19.2486 40.2958 19.6683 40.9741 20.3453C41.5944 20.9552 42.0744 21.6928 42.3806 22.507C42.682 23.2841 42.8869 24.1697 42.9479 25.4689C43.0052 26.7693 43.0211 27.1829 43.0211 30.4974C43.0211 33.8118 43.0089 34.2254 42.9479 35.5258C42.8869 36.825 42.682 37.7094 42.3806 38.4877C42.0753 39.3023 41.5952 40.0402 40.9741 40.6494C40.3641 41.2695 39.6265 41.7494 38.8124 42.0559C38.0353 42.3572 37.1497 42.5622 35.8505 42.6232C34.5501 42.6805 34.1365 42.6964 30.8221 42.6964C27.5076 42.6964 27.094 42.6842 25.7936 42.6232C24.4944 42.5622 23.61 42.3572 22.8317 42.0559C22.0172 41.7503 21.2794 41.2702 20.67 40.6494C20.0496 40.0397 19.5696 39.302 19.2635 38.4877C18.961 37.7106 18.7572 36.825 18.6962 35.5258C18.6389 34.2254 18.623 33.8118 18.623 30.4974C18.623 27.1829 18.6352 26.7693 18.6962 25.4689C18.7572 24.1685 18.961 23.2853 19.2635 22.507C19.5688 21.6923 20.0489 20.9545 20.67 20.3453C21.2796 19.7247 22.0173 19.2447 22.8317 18.9388C23.61 18.6363 24.4932 18.4325 25.7936 18.3715C27.094 18.3142 27.5076 18.2983 30.8221 18.2983ZM30.8221 24.3978C29.2044 24.3978 27.6529 25.0405 26.5091 26.1844C25.3652 27.3282 24.7226 28.8797 24.7226 30.4974C24.7226 32.115 25.3652 33.6665 26.5091 34.8104C27.6529 35.9542 29.2044 36.5969 30.8221 36.5969C32.4398 36.5969 33.9912 35.9542 35.1351 34.8104C36.2789 33.6665 36.9216 32.115 36.9216 30.4974C36.9216 28.8797 36.2789 27.3282 35.1351 26.1844C33.9912 25.0405 32.4398 24.3978 30.8221 24.3978ZM38.7514 24.0929C38.7514 23.6885 38.5908 23.3006 38.3048 23.0146C38.0188 22.7287 37.631 22.568 37.2266 22.568C36.8221 22.568 36.4343 22.7287 36.1483 23.0146C35.8623 23.3006 35.7017 23.6885 35.7017 24.0929C35.7017 24.4973 35.8623 24.8852 36.1483 25.1711C36.4343 25.4571 36.8221 25.6178 37.2266 25.6178C37.631 25.6178 38.0188 25.4571 38.3048 25.1711C38.5908 24.8852 38.7514 24.4973 38.7514 24.0929ZM30.8221 26.8377C31.7927 26.8377 32.7235 27.2232 33.4099 27.9096C34.0962 28.5959 34.4818 29.5267 34.4818 30.4974C34.4818 31.468 34.0962 32.3988 33.4099 33.0852C32.7235 33.7715 31.7927 34.1571 30.8221 34.1571C29.8515 34.1571 28.9206 33.7715 28.2343 33.0852C27.5479 32.3988 27.1624 31.468 27.1624 30.4974C27.1624 29.5267 27.5479 28.5959 28.2343 27.9096C28.9206 27.2232 29.8515 26.8377 30.8221 26.8377Z" fill="#1E1E1E"/>
</svg>
