<svg width="25" height="24" viewBox="0 0 25 24" fill="none" xmlns="http://www.w3.org/2000/svg">
<g clip-path="url(#clip0_193_75086)">
<path d="M22.5281 0H2.07656C1.09687 0 0.304688 0.773331 0.304688 1.72945V22.2626C0.304688 23.2187 1.09687 23.9967 2.07656 23.9967H22.5281C23.5078 23.9967 24.3047 23.2187 24.3047 22.2672V1.72945C24.3047 0.773331 23.5078 0 22.5281 0ZM7.425 20.4487H3.8625V8.99407H7.425V20.4487ZM5.64375 7.43335C4.5 7.43335 3.57656 6.51004 3.57656 5.37113C3.57656 4.23223 4.5 3.30892 5.64375 3.30892C6.78281 3.30892 7.70625 4.23223 7.70625 5.37113C7.70625 6.50535 6.78281 7.43335 5.64375 7.43335ZM20.7562 20.4487H17.1984V14.8808C17.1984 13.5544 17.175 11.8437 15.3469 11.8437C13.4953 11.8437 13.2141 13.2919 13.2141 14.787V20.4487H9.66094V8.99407H13.0734V10.5595H13.1203C13.5937 9.65961 14.7563 8.70818 16.4859 8.70818C20.0906 8.70818 20.7562 11.0797 20.7562 14.1637V20.4487Z" fill="#6C6C6C"/>
</g>
<defs>
<clipPath id="clip0_193_75086">
<rect width="24" height="23.9967" fill="white" transform="translate(0.304688)"/>
</clipPath>
</defs>
</svg>
