<svg width="61" height="60" viewBox="0 0 61 60" fill="none" xmlns="http://www.w3.org/2000/svg">
<circle cx="30.663" cy="29.8876" r="29.8876" fill="#E4E8E8"/>
<path d="M39.0002 38.2306H35.7491V33.1351C35.7491 31.9201 35.7247 30.3562 34.0535 30.3562C32.359 30.3562 32.1004 31.6785 32.1004 33.046V38.2306H28.8481V27.7529H31.9711V29.1802H32.0138C32.4505 28.358 33.5118 27.4882 35.0977 27.4882C38.3914 27.4882 39.0014 29.6572 39.0014 32.4788V38.2306H39.0002ZM25.1762 26.3195C24.9281 26.3198 24.6822 26.2712 24.4529 26.1763C24.2236 26.0814 24.0152 25.9422 23.8398 25.7667C23.6643 25.5911 23.5253 25.3827 23.4306 25.1533C23.3359 24.9239 23.2873 24.6781 23.2878 24.4299C23.2881 24.0564 23.3991 23.6914 23.6068 23.3809C23.8145 23.0705 24.1095 22.8287 24.4547 22.686C24.7999 22.5433 25.1796 22.5061 25.5458 22.5792C25.9121 22.6523 26.2485 22.8324 26.5124 23.0967C26.7763 23.3609 26.956 23.6975 27.0286 24.0639C27.1012 24.4302 27.0636 24.8099 26.9204 25.1549C26.7773 25.4999 26.535 25.7946 26.2244 26.0019C25.9137 26.2092 25.5485 26.3197 25.175 26.3195H25.1762ZM26.806 38.2306H23.5452V27.7529H26.8072V38.2306H26.806ZM40.6287 19.5186H21.9142C21.0164 19.5186 20.293 20.2261 20.293 21.1008V39.8946C20.293 40.7692 21.0176 41.4768 21.913 41.4768H40.6239C41.5193 41.4768 42.2512 40.7692 42.2512 39.8946V21.1008C42.2512 20.2261 41.5193 19.5186 40.6239 19.5186H40.6275H40.6287Z" fill="#1E1E1E"/>
</svg>
