<svg width="24" height="25" viewBox="0 0 24 25" fill="none" xmlns="http://www.w3.org/2000/svg">
<g clip-path="url(#clip0_213_90332)">
<path d="M22.2234 0.5H1.77187C0.792187 0.5 0 1.27333 0 2.22945V22.7626C0 23.7187 0.792187 24.4967 1.77187 24.4967H22.2234C23.2031 24.4967 24 23.7187 24 22.7672V2.22945C24 1.27333 23.2031 0.5 22.2234 0.5ZM7.12031 20.9487H3.55781V9.49407H7.12031V20.9487ZM5.33906 7.93335C4.19531 7.93335 3.27188 7.01004 3.27188 5.87113C3.27188 4.73223 4.19531 3.80892 5.33906 3.80892C6.47813 3.80892 7.40156 4.73223 7.40156 5.87113C7.40156 7.00535 6.47813 7.93335 5.33906 7.93335ZM20.4516 20.9487H16.8937V15.3808C16.8937 14.0544 16.8703 12.3437 15.0422 12.3437C13.1906 12.3437 12.9094 13.7919 12.9094 15.287V20.9487H9.35625V9.49407H12.7687V11.0595H12.8156C13.2891 10.1596 14.4516 9.20818 16.1813 9.20818C19.7859 9.20818 20.4516 11.5797 20.4516 14.6637V20.9487Z" fill="#1E1E1E"/>
</g>
<defs>
<clipPath id="clip0_213_90332">
<rect width="24" height="23.9967" fill="white" transform="translate(0 0.5)"/>
</clipPath>
</defs>
</svg>
