<svg width="34" height="35" viewBox="0 0 34 35" fill="none" xmlns="http://www.w3.org/2000/svg">
<g clip-path="url(#clip0_167_85327)">
<path d="M9.37833 15.7858C11.4183 19.795 14.705 23.0675 18.7142 25.1217L21.8308 22.005C22.2133 21.6225 22.78 21.495 23.2758 21.665C24.8625 22.1892 26.5767 22.4725 28.3333 22.4725C29.1125 22.4725 29.75 23.11 29.75 23.8892V28.8333C29.75 29.6125 29.1125 30.25 28.3333 30.25C15.0308 30.25 4.25 19.4692 4.25 6.16667C4.25 5.3875 4.8875 4.75 5.66667 4.75H10.625C11.4042 4.75 12.0417 5.3875 12.0417 6.16667C12.0417 7.9375 12.325 9.6375 12.8492 11.2242C13.005 11.72 12.8917 12.2725 12.495 12.6692L9.37833 15.7858Z" fill="black"/>
</g>
<defs>
<clipPath id="clip0_167_85327">
<rect width="34" height="34" fill="white" transform="translate(0 0.5)"/>
</clipPath>
</defs>
</svg>
