<svg width="61" height="60" viewBox="0 0 61 60" fill="none" xmlns="http://www.w3.org/2000/svg">
<circle cx="30.4384" cy="29.8876" r="29.8876" fill="#E4E8E8"/>
<path d="M42.4942 21.9187C41.5628 22.3306 40.5752 22.6012 39.564 22.7213C40.6299 22.0839 41.4276 21.0806 41.8086 19.8985C40.8083 20.4938 39.7116 20.911 38.5685 21.1367C37.8007 20.3152 36.783 19.7704 35.6736 19.5869C34.5643 19.4035 33.4253 19.5917 32.434 20.1223C31.4426 20.6529 30.6543 21.4962 30.1916 22.521C29.7289 23.5459 29.6178 24.6949 29.8755 25.7894C27.8469 25.6877 25.8624 25.1606 24.0508 24.2422C22.2392 23.3237 20.641 22.0346 19.3599 20.4584C18.9065 21.2373 18.6682 22.1227 18.6695 23.0239C18.6695 24.7927 19.5698 26.3554 20.9385 27.2704C20.1285 27.2449 19.3363 27.0261 18.628 26.6324V26.6958C18.6283 27.8738 19.0359 29.0156 19.7818 29.9274C20.5278 30.8392 21.5661 31.465 22.7208 31.6986C21.9688 31.9024 21.1804 31.9324 20.4152 31.7864C20.7407 32.8005 21.3752 33.6873 22.2299 34.3227C23.0845 34.9582 24.1165 35.3105 25.1813 35.3303C24.123 36.1614 22.9113 36.7758 21.6154 37.1384C20.3195 37.5009 18.9649 37.6045 17.6289 37.4431C19.961 38.9429 22.6758 39.7391 25.4485 39.7365C34.8332 39.7365 39.9653 31.9621 39.9653 25.2197C39.9653 25.0001 39.9592 24.7781 39.9495 24.561C40.9484 23.839 41.8105 22.9446 42.4954 21.9199L42.4942 21.9187Z" fill="#1E1E1E"/>
</svg>
